# AST/ASF file generated using VICON BodyLanguage
# -----------------------------------------------
:version 1.10
:name VICON
:units
  mass 1.0
  length 0.45
  angle deg
:documentation
   .ast/.asf automatically generated from VICON data using
   VICON BodyBuilder and BodyLanguage model FoxedUp or BRILLIANT.MOD
:root
   order TX TY TZ RX RY RZ
   axis XYZ
   position 0 0 0  
   orientation 0 0 0 
:bonedata
  begin
     id 1 
     name lhipjoint
     direction 0.547975 -0.797114 0.253638 
     length 2.36201 
     axis 0 0 0  XYZ
  end
  begin
     id 2 
     name lfemur
     direction 0.34202 -0.939693 0  
     length 7.69075  
     axis 0 0 20  XYZ
    dof rx ry rz
    limits (-160.0 20.0)
           (-70.0 70.0)
           (-60.0 70.0)
  end
  begin
     id 3 
     name ltibia
     direction 0.34202 -0.939693 0   
     length 7.91399   
     axis 0 0 20   XYZ
    dof rx
    limits (-10.0 170.0)
  end
  begin
     id 4 
     name lfoot
     direction 0.0705293 -0.193778 0.978507   
     length 2.13618   
     axis -90 7.62852e-016 20   XYZ
    dof rx rz
    limits (-45.0 90.0)
           (-70.0 20.0)
  end
  begin
     id 5 
     name ltoes
     direction 1.53592e-011 -4.21925e-011 1   
     length 1.07518   
     axis -90 7.62852e-016 20   XYZ
    dof rx
    limits (-90.0 20.0)
  end
  begin
     id 6 
     name rhipjoint
     direction -0.57 -0.782963 0.249136   
     length 2.4047  
     axis 0 0 0  XYZ 
  end
  begin
     id 7 
     name rfemur
     direction -0.34202 -0.939693 0   
     length 7.51486   
     axis 0 0 -20   XYZ
    dof rx ry rz
    limits (-160.0 20.0)
           (-70.0 70.0)
           (-70.0 60.0)
  end
  begin
     id 8 
     name rtibia
     direction -0.34202 -0.939693 0   
     length 8.08317   
     axis 0 0 -20   XYZ
    dof rx
    limits (-10.0 170.0)
 end
 begin
     id 9 
     name rfoot
     direction -0.104954 -0.281256 0.953876   
     length 2.30343  
     axis -90 -7.62852e-016 -20   XYZ
    dof rx rz
    limits (-45.0 90.0)
           (-20.0 70.0)
  end
  begin
     id 10 
     name rtoes
     direction -1.53556e-011 -4.21922e-011 1   
     length 1.14803   
     axis -90 -7.62852e-016 -20   XYZ
    dof rx
    limits (-90.0 20.0)
  end
  begin
     id 11 
     name lowerback
     direction -0.0152855 0.99353 -0.11254   
     length 2.05311   
     axis 0 0 0   XYZ
    dof rx ry rz
    limits (-20.0 45.0)
           (-30.0 30.0)
           (-30.0 30.0)
  end
  begin
     id 12 
     name upperback
     direction -0.00157509 0.999443 -0.033332   
     length 2.06353   
     axis 0 0 0   XYZ
    dof rx ry rz
    limits (-20.0 45.0)
           (-30.0 30.0)
           (-30.0 30.0)
  end
  begin
     id 13 
     name thorax
     direction 0.00577788 0.999804 0.0189484   
     length 2.08472   
     axis 0 0 0   XYZ
    dof rx ry rz
    limits (-20.0 45.0)
           (-30.0 30.0)
           (-30.0 30.0)
  end
  begin
     id 14 
     name lowerneck
     direction -1.09301e-005 0.994719 0.10264   
     length 1.76249   
     axis 0 0 0   XYZ
    dof rx ry rz
    limits (-20.0 45.0)
           (-30.0 30.0)
           (-30.0 30.0)
  end
  begin
     id 15 
     name upperneck
     direction 0.0495018 0.988526 -0.142706   
     length 1.77897   
     axis 0 0 0   XYZ
    dof rx ry rz
    limits (-20.0 45.0)
           (-30.0 30.0)
           (-30.0 30.0)
  end
  begin
     id 16
     name head
     direction 0.0142736 0.998114 -0.0597101  
     length 1.78934  
     axis 0 0 0   XYZ
    dof rx ry rz
    limits (-20.0 45.0)
           (-30.0 30.0)
           (-30.0 30.0)
  end
  begin
     id 17 
     name lclavicle
     direction 0.918111 0.396107 -0.0130883  
     length 3.37276  
     axis 0 0 0   XYZ
    dof ry rz
    limits (-20.0 10.0)
           (0.0 20.0)
  end
  begin
     id 18 
     name lhumerus
     direction 1 -4.48975e-011 -3.26108e-027   
     length 5.34298   
     axis 180 -30 -90   XYZ
    dof rx ry rz
    limits (-60.0 90.0)
           (-90.0 90.0)
           (-90.0 90.0)
  end
  begin
     id 19
     name lradius
     direction 1 -4.48964e-011 -8.84413e-028   
     length 3.67262   
     axis 180 -30 -90   XYZ
    dof rx
    limits (-10.0 170.0)
  end
  begin
     id 20
     name lwrist
     direction 1 -4.48991e-011 -1.24264e-027   
     length 1.83631   
     axis -2.17013e-015 90 90   XYZ
    dof ry
    limits (-180.0 0.0)
 end
  begin
     id 21 
     name lhand
     direction 1 -4.48855e-011 -2.48528e-027   
     length 0.599298   
     axis 1.58582e-015 90 90   XYZ
    dof rx rz
    limits (-90.0 90.0)
           (-45.0 45.0)
  end
  begin
     id 22 
     name lfingers
     direction 1 -4.48811e-011 -4.97056e-027   
     length 0.48317   
     axis 3.17164e-015 90 90   XYZ
    dof rx
    limits (0.0 90.0)
  end
  begin
     id 23
     name lthumb
     direction 0.707107 -6.34882e-011 0.707107   
     length 0.693738   
     axis -90 45 2.85299e-015   XYZ
    dof rx rz
    limits (-45.0 45.0)
           (-45.0 45.0)
  end
  begin
     id 24 
     name rclavicle
     direction -0.920511 0.384752 -0.0680135   
     length 3.43787  
     axis 0 0 0   XYZ 
    dof ry rz
    limits (-10.0 20.0)
           (-20.0 0.0)
  end
  begin
     id 25 
     name rhumerus
     direction -0.999976 -0.00330524 0.00603274  
     length 5.5498   
     axis 180 30 90   XYZ
    dof rx ry rz
    limits (-90.0 60.0)
           (-90.0 90.0)
           (-90.0 90.0)
  end
  begin
     id 26 
     name rradius
     direction -1 -4.48967e-011 8.62438e-027   
     length 3.69401   
     axis 180 30 90   XYZ
    dof rx
    limits (-10.0 170.0)
  end
  begin
     id 27 
     name rwrist
     direction -1 -4.4897e-011 9.54866e-027   
     length 1.84701   
     axis -7.69462e-015 -90 -90   XYZ
    dof ry
    limits (-180.0 0.0)
  end
  begin
     id 28
     name rhand
     direction -1 -4.48982e-011 1.90973e-026   
     length 0.638113   
     axis -1.21857e-014 -90 -90   XYZ
    dof rx rz
    limits (-90.0 90.0)
           (-45.0 45.0)
  end
  begin
     id 29
     name rfingers
     direction -1 -4.48936e-011 3.81946e-026   
     length 0.514463   
     axis -2.43714e-014 -90 -90   XYZ
    dof rx
    limits (0.0 90.0)
  end
  begin
     id 30
     name rthumb
     direction -0.707107 -6.34942e-011 0.707107   
     length 0.738669   
     axis -90 -45 -2.85299e-015   XYZ
    dof rx rz
    limits (-45.0 45.0)
           (-45.0 45.0)
  end
:hierarchy
  begin
    root lhipjoint rhipjoint lowerback
    lhipjoint lfemur
    lfemur ltibia
    ltibia lfoot
    lfoot ltoes
    rhipjoint rfemur
    rfemur rtibia
    rtibia rfoot
    rfoot rtoes
    lowerback upperback
    upperback thorax
    thorax lowerneck lclavicle rclavicle
    lowerneck upperneck
    upperneck head
    lclavicle lhumerus
    lhumerus lradius
    lradius lwrist
    lwrist lhand lthumb
    lhand lfingers
    rclavicle rhumerus
    rhumerus rradius
    rradius rwrist
    rwrist rhand rthumb
    rhand rfingers
  end

#!OML:ASF F:\twosubjects\two\Thursday\Session 1\Rory.ASF
:FULLY-SPECIFIED
:DEGREES
50
root 17.5507 18.3828 -9.4019 4.8582 -6.38012 0.735157
lowerback -0.0218519 -0.379605 1.08253
upperback 2.5115 -0.537707 0.628258
thorax 2.5836 -0.252894 0.0257888
lowerneck -7.59996 -6.69535 -5.03142
upperneck 38.6502 -10.9232 4.47518
head 15.3936 -4.87526 1.1196
rclavicle -9.93923e-017 7.95139e-015
rhumerus -37.2555 20.9463 -96.9134
rradius 92.8095
rwrist -68.0586
rhand -21.0488 0.100686
rfingers 7.12502
rthumb 5.32723 -29.8124
lclavicle -9.93923e-017 7.95139e-015
lhumerus -39.8322 -33.4595 102.189
lradius 96.7551
lwrist -30.2544
lhand -27.0977 30.1679
lfingers 7.12502
lthumb -0.514478 60.147
rfemur -12.5011 5.81821 21.7443
rtibia 24.5757
rfoot -15.6501 -2.08179
rtoes 6.97489
lfemur -27.4411 6.37754 -15.3807
ltibia 47.3367
lfoot -9.9134 8.77501
ltoes -3.46097
51
root 17.5471 18.3765 -9.28432 4.90436 -6.3876 0.739521
lowerback -0.0530692 -0.469698 0.992869
upperback 2.55338 -0.659094 0.694608
thorax 2.64519 -0.315981 0.140856
lowerneck -7.48898 -6.67634 -5.35597
upperneck 38.1281 -10.8321 4.63486
head 15.1358 -4.87517 1.26074
rclavicle 1.03368e-014 1.63003e-014
rhumerus -37.1278 20.6051 -96.4672
rradius 92.3823
rwrist -67.8912
rhand -13.761 -0.281065
rfingers 7.12502
rthumb 12.3595 -29.8957
lclavicle 1.03368e-014 1.63003e-014
lhumerus -39.8078 -32.4151 102.015
lradius 96.8309
lwrist -29.9181
lhand -27.275 30.0563
lfingers 7.12502
lthumb -0.685722 60.035
rfemur -12.0747 6.14393 21.7453
rtibia 24.4905
rfoot -16.0955 -2.39133
rtoes 7.42192
lfemur -27.7493 6.12677 -15.4403
ltibia 45.3145
lfoot -9.96678 9.17877
ltoes -5.30602
52
root 17.5458 18.3693 -9.16401 4.94877 -6.44509 0.821427
lowerback -0.0629311 -0.508547 1.01695
upperback 2.56305 -0.708956 0.581264
thorax 2.65874 -0.338832 0.0097987
lowerneck -7.20087 -6.71491 -5.66339
upperneck 37.6204 -10.8665 4.86188
head 14.863 -4.92189 1.4127
rclavicle -8.15017e-015 -7.15625e-015
rhumerus -36.9916 20.0026 -96.1759
rradius 91.9081
rwrist -67.7102
rhand -10.226 -0.962319
rfingers 7.12502
rthumb 15.766 -30.3402
lclavicle -8.15017e-015 -7.15625e-015
lhumerus -39.9224 -31.4729 101.667
lradius 97.0682
lwrist -29.9563
lhand -27.4415 29.4205
lfingers 7.12502
lthumb -0.846546 59.3986
rfemur -11.6689 6.25724 21.6642
rtibia 24.4233
rfoot -16.5271 -2.5686
rtoes 7.16741
lfemur -27.915 5.86165 -15.493
ltibia 43.1198
lfoot -10.2543 8.96343
ltoes -4.86222
53
root 17.5452 18.365 -9.05121 4.99203 -6.5046 0.907874
lowerback 0.173165 -0.495756 1.00367
upperback 2.47541 -0.684395 0.454685
thorax 2.43428 -0.326466 -0.109331
lowerneck -6.90538 -6.79203 -5.69457
upperneck 36.9961 -10.9197 4.85579
head 14.4994 -4.9685 1.41838
rclavicle -6.36111e-015 -1.35174e-014
rhumerus -36.9747 19.1084 -95.939
rradius 91.3669
rwrist -67.412
rhand -9.31422 -2.01612
rfingers 7.12502
rthumb 16.6439 -31.3225
lclavicle -6.36111e-015 -1.35174e-014
lhumerus -40.2584 -30.7137 101.428
lradius 97.3625
lwrist -30.0012
lhand -27.3903 29.1741
lfingers 7.12502
lthumb -0.797025 59.1524
rfemur -11.2642 6.2721 21.5831
rtibia 24.3301
rfoot -16.8109 -2.74131
rtoes 6.32433
lfemur -28.0813 5.57957 -15.5264
ltibia 40.7992
lfoot -10.6071 7.735
ltoes -4.4447
54
root 17.5473 18.3665 -8.9373 5.05601 -6.53287 1.11486
lowerback 0.279989 -0.508772 0.72936
upperback 2.42982 -0.6957 0.401025
thorax 2.32953 -0.337658 -0.00967793
lowerneck -6.49279 -6.83106 -5.85156
upperneck 36.0688 -10.9183 4.99665
head 13.993 -4.99744 1.51834
rclavicle 1.38155e-014 1.35174e-014
rhumerus -36.9422 18.294 -95.4908
rradius 90.5774
rwrist -65.9985
rhand -9.10706 -2.59239
rfingers 7.12502
rthumb 16.8434 -31.8819
lclavicle 1.38155e-014 1.35174e-014
lhumerus -40.4951 -29.6643 101.326
lradius 97.6807
lwrist -29.87
lhand -27.0714 29.2072
lfingers 7.12502
lthumb -0.489044 59.1864
rfemur -10.849 6.16549 21.3449
rtibia 24.1279
rfoot -17.0624 -2.73383
rtoes 5.99597
lfemur -28.2676 5.17687 -15.6923
ltibia 38.4041
lfoot -10.5804 7.12432
ltoes -4.74809
55
root 17.5506 18.3732 -8.81539 5.13241 -6.5629 1.4292
lowerback 0.194179 -0.482599 0.361964
upperback 2.47947 -0.655841 0.307894
thorax 2.43195 -0.324036 0.100239
lowerneck -6.43851 -6.93057 -6.09721
upperneck 35.3849 -11.0583 5.30487
head 13.7203 -5.06375 1.66288
rclavicle -2.78299e-015 -9.93923e-015
rhumerus -36.5606 17.385 -94.8923
rradius 89.345
rwrist -63.8466
rhand -9.60608 -2.09638
rfingers 7.12502
rthumb 16.363 -31.4261
lclavicle -2.78299e-015 -9.93923e-015
lhumerus -40.5477 -28.8474 101.09
lradius 98.0299
lwrist -29.8709
lhand -26.6607 29.1914
lfingers 7.12502
lthumb -0.0923788 59.1711
rfemur -10.3777 5.95871 20.9758
rtibia 23.7727
rfoot -17.2945 -2.60213
rtoes 5.80293
lfemur -28.4178 4.7513 -15.9765
ltibia 36.0105
lfoot -10.2811 7.29281
ltoes -4.67896
56
root 17.5397 18.3688 -8.71228 5.0977 -6.65748 1.01459
lowerback 0.830357 -0.362384 0.561263
upperback 2.36604 -0.493321 0.40014
thorax 1.95701 -0.24093 0.091102
lowerneck -6.39879 -7.13383 -6.22066
upperneck 34.9058 -11.3399 5.45314
head 13.5394 -5.1922 1.70088
rclavicle -6.11263e-015 7.95139e-015
rhumerus -36.4647 16.29 -94.3647
rradius 88.1856
rwrist -61.6057
rhand -10.6417 -0.445509
rfingers 7.12502
rthumb 15.3657 -29.8546
lclavicle -6.11263e-015 7.95139e-015
lhumerus -40.8574 -28.3381 100.943
lradius 98.3659
lwrist -29.8722
lhand -26.3138 29.0968
lfingers 7.12502
lthumb 0.24265 59.0764
rfemur -9.66545 6.36308 21.5183
rtibia 23.2985
rfoot -17.379 -2.99237
rtoes 5.21424
lfemur -28.3453 4.76577 -15.4614
ltibia 33.4964
lfoot -9.41452 7.36445
ltoes -5.66862
57
root 17.51 18.3503 -8.63752 4.91737 -6.84994 -0.0988825
lowerback 2.08984 -0.294675 1.09914
upperback 2.17934 -0.387043 0.770704
thorax 1.0588 -0.18568 0.177576
lowerneck -5.9229 -7.256 -6.52633
upperneck 34.0866 -11.4849 5.68925
head 13.1273 -5.29377 1.84135
rclavicle 1.18774e-014 -9.54166e-015
rhumerus -36.6011 15.6105 -94.0078
rradius 87.1344
rwrist -59.4705
rhand -11.2593 2.62981
rfingers 7.12502
rthumb 14.7707 -26.8239
lclavicle 1.18774e-014 -9.54166e-015
lhumerus -41.348 -26.9041 100.862
lradius 98.6996
lwrist -30.0168
lhand -25.778 28.4218
lfingers 7.12502
lthumb 0.760133 58.4002
rfemur -8.7292 7.30351 22.975
rtibia 22.7224
rfoot -17.2709 -3.85732
rtoes 4.03021
lfemur -28.0792 4.96278 -14.0563
ltibia 30.9594
lfoot -8.24706 7.15113
ltoes -8.42862
58
root 17.5347 18.3713 -8.44572 5.15021 -6.69852 0.795342
lowerback 0.749907 -0.422992 0.743375
upperback 2.36955 -0.574767 0.339663
thorax 2.00328 -0.277488 -0.0742331
lowerneck -5.55415 -7.33399 -6.79786
upperneck 33.0038 -11.5788 6.04555
head 12.6376 -5.35486 2.02319
rclavicle -9.93923e-017 -4.37326e-015
rhumerus -36.2035 14.8868 -93.628
rradius 85.7138
rwrist -57.232
rhand -10.5741 6.48267
rfingers 7.12502
rthumb 15.4307 -22.9214
lclavicle -9.93923e-017 -4.37326e-015
lhumerus -41.5236 -25.5657 100.512
lradius 98.8902
lwrist -30.3289
lhand -25.7409 27.9811
lfingers 7.12502
lthumb 0.796022 57.9593
rfemur -8.0609 6.23794 21.799
rtibia 22.0147
rfoot -17.6089 -3.16568
rtoes 3.11296
lfemur -28.0412 3.9186 -15.0053
ltibia 28.4507
lfoot -7.9693 7.4321
ltoes -9.01443
